# xmcd
#
# Track frame offsets:
#	183
#	36080
#	75895
#	90423
#	101813
#	135218
#	158070
#	172693
#	208118
#	231570
#	235803
#	258978
#
# Disc length: 3842 seconds
# Revision: 3
# Processed by: cddbd v1.5.2PL0 Copyright (c) Steve Scherf et al.
# Submitted via: dBpowerAMP V12.0
#
DISCID=870f000c
DTITLE=Muddy Waters - Switzerland 1976 - CD1
DYEAR=1976
DGENRE=Blues
TTITLE0=After Hours
TTITLE1=Medley - Floyd's Guitar Blues - Blue Lights
TTITLE2=Boogie Thing
TTITLE3=Chicken Shack
TTITLE4=Going Down Slow
TTITLE5=What's The Matter With The Mill
TTITLE6=Hoochie Coochie Man
TTITLE7=Howlin' Wolf
TTITLE8=Everything's Gonna Be Alright
TTITLE9=Theme
TTITLE10=Dust My Broom
TTITLE11=You Left Me With A Broken Heart
EXTD=
EXTT0=
EXTT1=
EXTT2=
EXTT3=
EXTT4=
EXTT5=
EXTT6=
EXTT7=
EXTT8=
EXTT9=
EXTT10=
EXTT11=
PLAYORDER=
